<?xml version="1.0" encoding="UTF-8"?>
<!DOCTYPE svg PUBLIC "-//W3C//DTD SVG 1.1//EN" "http://www.w3.org/Graphics/SVG/1.1/DTD/svg11.dtd">
<svg xmlns="http://www.w3.org/2000/svg" version="1.1" width="512px" height="512px" style="shape-rendering:geometricPrecision; text-rendering:geometricPrecision; image-rendering:optimizeQuality; fill-rule:evenodd; clip-rule:evenodd" xmlns:xlink="http://www.w3.org/1999/xlink">
<g><path style="opacity:0.998" fill="#000000" d="M 62.5,-0.5 C 191.167,-0.5 319.833,-0.5 448.5,-0.5C 482.5,7.5 503.5,28.5 511.5,62.5C 511.5,191.167 511.5,319.833 511.5,448.5C 503.5,482.5 482.5,503.5 448.5,511.5C 404.167,511.5 359.833,511.5 315.5,511.5C 315.5,451.167 315.5,390.833 315.5,330.5C 340.833,330.5 366.167,330.5 391.5,330.5C 396.167,300.5 400.833,270.5 405.5,240.5C 375.5,240.5 345.5,240.5 315.5,240.5C 315.5,220.167 315.5,199.833 315.5,179.5C 345.833,179.5 376.167,179.5 406.5,179.5C 406.5,149.5 406.5,119.5 406.5,89.5C 372.145,89.0881 337.812,89.5881 303.5,91C 263.202,98.2982 238.035,121.798 228,161.5C 227.003,167.461 226.337,173.461 226,179.5C 225.5,199.831 225.333,220.164 225.5,240.5C 205.5,240.5 185.5,240.5 165.5,240.5C 165.5,270.5 165.5,300.5 165.5,330.5C 185.5,330.5 205.5,330.5 225.5,330.5C 225.5,390.833 225.5,451.167 225.5,511.5C 171.167,511.5 116.833,511.5 62.5,511.5C 28.5,503.5 7.5,482.5 -0.5,448.5C -0.5,319.833 -0.5,191.167 -0.5,62.5C 7.5,28.5 28.5,7.5 62.5,-0.5 Z"/></g>
</svg>
