<svg width="491" height="647" viewBox="0 0 491 647" fill="none" xmlns="http://www.w3.org/2000/svg">
	<path d="M0 10C0 4.47716 4.47715 0 10 0H481C486.523 0 491 4.47715 491 10V471.891V637C491 642.523 486.523 647 481 647H320.01H10C4.47716 647 0 642.523 0 637V10Z" fill="#FF7F0D" />
	<path d="M421 507C421 545.108 390.108 576 352 576C313.892 576 283 545.108 283 507C283 468.892 313.892 438 352 438C390.108 438 421 468.892 421 507Z" fill="#FFD700" fill-opacity="0.5" />
	<path fill-rule="evenodd" clip-rule="evenodd" d="M311 598.5C311 615.6 314.191 631.954 320.01 647H481C486.523 647 491 642.523 491 637V471.891C476.789 466.783 461.47 464 445.5 464C371.218 464 311 524.218 311 598.5Z" fill="#FFA500" />
</svg>
