<?xml version="1.0" standalone="no"?>
<!DOCTYPE svg PUBLIC "-//W3C//DTD SVG 20010904//EN"
 "http://www.w3.org/TR/2001/REC-SVG-20010904/DTD/svg10.dtd">
<svg version="1.0" xmlns="http://www.w3.org/2000/svg"
 width="512.000000pt" height="512.000000pt" viewBox="0 0 512.000000 512.000000"
 preserveAspectRatio="xMidYMid meet">

<g transform="translate(0.000000,512.000000) scale(0.100000,-0.100000)"
fill="#000000" stroke="none">
<path d="M2375 5054 c-16 -2 -73 -9 -125 -15 -435 -49 -869 -231 -1240 -518
-110 -85 -327 -302 -412 -412 -277 -357 -445 -752 -515 -1206 -23 -150 -23
-536 0 -686 112 -727 493 -1334 1087 -1732 330 -221 669 -348 1085 -407 135
-19 503 -16 650 5 373 55 731 192 1035 395 617 413 996 1025 1102 1777 17 119
16 493 -1 615 -88 635 -394 1199 -866 1597 -357 302 -802 502 -1265 568 -108
16 -467 29 -535 19z m921 -975 c140 -15 236 -42 349 -98 202 -100 326 -244
401 -464 52 -153 54 -183 54 -957 0 -586 -3 -733 -15 -801 -73 -418 -349 -669
-790 -719 -120 -13 -1352 -13 -1470 0 -323 37 -566 186 -691 423 -46 88 -81
192 -99 296 -22 123 -22 1479 0 1602 28 163 94 314 184 424 127 155 351 266
591 294 112 13 1371 13 1486 0z"/>
<path d="M2175 3799 c-408 -7 -434 -10 -571 -75 -128 -60 -235 -201 -280 -369
-18 -65 -19 -117 -19 -795 0 -678 1 -730 19 -795 45 -168 152 -309 280 -369
137 -65 162 -68 579 -75 207 -3 547 -3 755 0 416 7 441 10 578 75 128 60 235
201 280 369 18 65 19 117 19 795 0 678 -1 730 -19 795 -45 168 -152 309 -280
369 -126 60 -175 68 -441 72 -132 2 -305 5 -385 7 -80 1 -311 -1 -515 -4z
m1269 -283 c18 -8 46 -31 62 -52 24 -31 29 -47 29 -95 0 -43 -5 -65 -21 -86
-75 -101 -217 -99 -277 5 -25 43 -25 120 -1 162 40 68 133 97 208 66z m-697
-166 c370 -88 623 -410 623 -790 0 -454 -356 -810 -810 -810 -453 0 -810 357
-810 810 0 378 251 699 618 790 107 26 271 26 379 0z"/>
<path d="M2400 3057 c-173 -59 -293 -184 -344 -356 -9 -32 -16 -91 -16 -141 0
-146 52 -272 151 -370 101 -100 224 -150 369 -150 146 0 272 52 370 151 100
101 150 224 150 369 0 239 -149 436 -379 504 -82 24 -220 21 -301 -7z"/>
</g>
</svg>
