<?xml version="1.0" encoding="UTF-8"?>
<!DOCTYPE svg PUBLIC "-//W3C//DTD SVG 1.1//EN" "http://www.w3.org/Graphics/SVG/1.1/DTD/svg11.dtd">
<svg xmlns="http://www.w3.org/2000/svg" version="1.1" width="512px" height="512px" style="shape-rendering:geometricPrecision; text-rendering:geometricPrecision; image-rendering:optimizeQuality; fill-rule:evenodd; clip-rule:evenodd" xmlns:xlink="http://www.w3.org/1999/xlink">
<g><path style="opacity:0.994" fill="#000000" d="M 118.5,-0.5 C 209.833,-0.5 301.167,-0.5 392.5,-0.5C 445.196,7.68692 482.029,36.3536 503,85.5C 506.962,96.351 509.795,107.351 511.5,118.5C 511.5,209.833 511.5,301.167 511.5,392.5C 503.313,445.196 474.646,482.029 425.5,503C 414.649,506.962 403.649,509.795 392.5,511.5C 301.167,511.5 209.833,511.5 118.5,511.5C 65.8039,503.313 28.9706,474.646 8,425.5C 4.03822,414.649 1.20488,403.649 -0.5,392.5C -0.5,301.167 -0.5,209.833 -0.5,118.5C 7.68692,65.8039 36.3536,28.9706 85.5,8C 96.351,4.03822 107.351,1.20488 118.5,-0.5 Z M 178.5,89.5 C 229.834,89.3333 281.168,89.5 332.5,90C 375.915,93.09 404.415,115.257 418,156.5C 419.812,164.058 420.812,171.724 421,179.5C 421.943,234.517 421.61,289.517 420,344.5C 412.806,382.06 390.973,406.56 354.5,418C 347.273,419.769 339.94,420.769 332.5,421C 277.149,421.948 221.816,421.615 166.5,420C 128.94,412.806 104.44,390.973 93,354.5C 91.1877,346.942 90.1877,339.276 90,331.5C 89.3333,280.833 89.3333,230.167 90,179.5C 91.9765,139.682 111.143,111.849 147.5,96C 157.66,92.3126 167.993,90.1459 178.5,89.5 Z M 336.5,155.5 C 350.652,154.151 356.819,160.485 355,174.5C 349.135,184.246 341.301,186.08 331.5,180C 324.906,170.014 326.573,161.848 336.5,155.5 Z M 254.5,180.5 C 287.849,182.243 311.349,198.243 325,228.5C 336.027,262.907 327.86,291.741 300.5,315C 270.5,335.667 240.5,335.667 210.5,315C 179.173,287.025 173.006,254.192 192,216.5C 206.93,194.284 227.763,182.284 254.5,180.5 Z"/></g>
<g><path style="opacity:0.99" fill="#000000" d="M 168.5,119.5 C 226.501,119.333 284.501,119.5 342.5,120C 368.667,126.167 384.833,142.333 391,168.5C 391.667,226.5 391.667,284.5 391,342.5C 384.833,368.667 368.667,384.833 342.5,391C 284.5,391.667 226.5,391.667 168.5,391C 142.333,384.833 126.167,368.667 120,342.5C 119.333,284.5 119.333,226.5 120,168.5C 126.344,142.323 142.511,125.99 168.5,119.5 Z M 336.5,155.5 C 326.573,161.848 324.906,170.014 331.5,180C 341.301,186.08 349.135,184.246 355,174.5C 356.819,160.485 350.652,154.151 336.5,155.5 Z M 254.5,180.5 C 227.763,182.284 206.93,194.284 192,216.5C 173.006,254.192 179.173,287.025 210.5,315C 240.5,335.667 270.5,335.667 300.5,315C 327.86,291.741 336.027,262.907 325,228.5C 311.349,198.243 287.849,182.243 254.5,180.5 Z"/></g>
<g><path style="opacity:0.976" fill="#000000" d="M 245.5,210.5 C 268.793,207.396 285.959,216.062 297,236.5C 305.029,257.545 300.862,275.712 284.5,291C 272.92,299.811 259.92,302.811 245.5,300C 227.333,295.167 215.833,283.667 211,265.5C 207.854,237.76 219.354,219.427 245.5,210.5 Z"/></g>
</svg>
