<?xml version="1.0" encoding="UTF-8"?>
<!DOCTYPE svg PUBLIC "-//W3C//DTD SVG 1.1//EN" "http://www.w3.org/Graphics/SVG/1.1/DTD/svg11.dtd">
<svg xmlns="http://www.w3.org/2000/svg" version="1.1" width="512px" height="512px" style="shape-rendering:geometricPrecision; text-rendering:geometricPrecision; image-rendering:optimizeQuality; fill-rule:evenodd; clip-rule:evenodd" xmlns:xlink="http://www.w3.org/1999/xlink">
<g><path style="opacity:0.994" fill="#000000" d="M 57.5,-0.5 C 189.5,-0.5 321.5,-0.5 453.5,-0.5C 485.167,6.5 504.5,25.8333 511.5,57.5C 511.5,189.5 511.5,321.5 511.5,453.5C 504.5,485.167 485.167,504.5 453.5,511.5C 321.5,511.5 189.5,511.5 57.5,511.5C 25.8333,504.5 6.5,485.167 -0.5,453.5C -0.5,321.5 -0.5,189.5 -0.5,57.5C 6.5,25.8333 25.8333,6.5 57.5,-0.5 Z M 139.5,95.5 C 161.097,96.9308 175.264,107.931 182,128.5C 185.835,151.665 177.335,168.498 156.5,179C 129.139,186.883 109.972,177.716 99,151.5C 93.9968,127.341 102.497,109.841 124.5,99C 129.545,97.4253 134.545,96.2587 139.5,95.5 Z M 323.5,198.5 C 342.419,196.701 360.419,199.868 377.5,208C 394.073,219.291 404.573,234.791 409,254.5C 410.986,263.403 412.319,272.403 413,281.5C 413.667,324.167 413.667,366.833 413,409.5C 411.833,411.333 410.333,412.833 408.5,414C 389.5,414.667 370.5,414.667 351.5,414C 349.714,413.215 348.214,412.049 347,410.5C 345.977,368.864 344.977,327.197 344,285.5C 338.403,260.943 323.237,251.443 298.5,257C 285.296,262.536 277.129,272.369 274,286.5C 273.118,289.789 272.452,293.123 272,296.5C 271.988,334.584 271.321,372.584 270,410.5C 268.048,412.894 265.548,414.394 262.5,415C 246.5,415.667 230.5,415.667 214.5,415C 210.562,414.786 207.728,412.953 206,409.5C 205.007,341.418 205.34,273.418 207,205.5C 208.319,203.513 210.152,202.346 212.5,202C 229.833,201.333 247.167,201.333 264.5,202C 267.583,202.786 269.749,204.619 271,207.5C 271.333,214.5 271.667,221.5 272,228.5C 284.573,210.63 301.74,200.63 323.5,198.5 Z M 114.5,201.5 C 131.503,201.333 148.503,201.5 165.5,202C 169.333,203.167 171.833,205.667 173,209.5C 173.667,275.5 173.667,341.5 173,407.5C 171.604,412.228 168.438,414.728 163.5,415C 148.167,415.667 132.833,415.667 117.5,415C 111.785,414.285 108.285,411.118 107,405.5C 106.333,340.833 106.333,276.167 107,211.5C 107.471,206.542 109.971,203.209 114.5,201.5 Z"/></g>
</svg>
