<?xml version="1.0" encoding="UTF-8"?>
<!DOCTYPE svg PUBLIC "-//W3C//DTD SVG 1.1//EN" "http://www.w3.org/Graphics/SVG/1.1/DTD/svg11.dtd">
<svg xmlns="http://www.w3.org/2000/svg" version="1.1" width="512px" height="512px" style="shape-rendering:geometricPrecision; text-rendering:geometricPrecision; image-rendering:optimizeQuality; fill-rule:evenodd; clip-rule:evenodd" xmlns:xlink="http://www.w3.org/1999/xlink">
<g><path style="opacity:0.994" fill="#000000" d="M 57.5,-0.5 C 189.5,-0.5 321.5,-0.5 453.5,-0.5C 485.167,6.5 504.5,25.8333 511.5,57.5C 511.5,189.5 511.5,321.5 511.5,453.5C 504.5,485.167 485.167,504.5 453.5,511.5C 321.5,511.5 189.5,511.5 57.5,511.5C 25.8333,504.5 6.5,485.167 -0.5,453.5C -0.5,321.5 -0.5,189.5 -0.5,57.5C 6.5,25.8333 25.8333,6.5 57.5,-0.5 Z M 261.5,95.5 C 305.801,95.8947 340.301,114.228 365,150.5C 376.865,171.683 381.198,194.35 378,218.5C 375.179,253.637 361.012,283.137 335.5,307C 315.75,322.521 293.417,328.521 268.5,325C 254.686,321.996 243.686,314.829 235.5,303.5C 230.695,320.053 226.195,336.719 222,353.5C 214.583,375.842 203.416,396.009 188.5,414C 187.552,414.483 186.552,414.649 185.5,414.5C 182.336,394.568 181.836,374.568 184,354.5C 192.026,317.395 200.526,280.395 209.5,243.5C 200.829,223.08 201.662,203.08 212,183.5C 221.457,169.181 234.29,164.681 250.5,170C 256.425,174.008 260.258,179.508 262,186.5C 262.667,192.167 262.667,197.833 262,203.5C 257.611,221.668 252.611,239.668 247,257.5C 243.451,280.46 253.285,293.127 276.5,295.5C 292.278,294.361 304.778,287.361 314,274.5C 325.64,256.581 332.307,236.915 334,215.5C 334.891,203.451 334.557,191.451 333,179.5C 324.241,147.841 303.407,130.341 270.5,127C 227.513,122.573 195.68,139.073 175,176.5C 165.798,197.55 164.798,218.884 172,240.5C 175.735,246.058 179.235,251.725 182.5,257.5C 181,263.5 179.5,269.5 178,275.5C 177.198,278.637 175.198,280.304 172,280.5C 153.334,272.826 141.334,259.159 136,239.5C 125.866,185.198 144.033,143.365 190.5,114C 212.777,102.015 236.444,95.8486 261.5,95.5 Z"/></g>
</svg>
