<?xml version="1.0" encoding="UTF-8"?>
<svg version="1.1" xmlns="http://www.w3.org/2000/svg" width="512" height="512">
<path d="M0 0 C0.71436816 -0.00235223 1.42873632 -0.00470446 2.16475201 -0.00712797 C4.56487977 -0.01379902 6.96495317 -0.01336032 9.36508942 -0.01294994 C11.10080628 -0.01624975 12.83652237 -0.01997557 14.57223749 -0.02409142 C19.34730807 -0.0341063 24.12236608 -0.0378274 28.89744568 -0.04048073 C34.04558089 -0.04438531 39.19370616 -0.05396356 44.34183502 -0.0626936 C56.77744374 -0.08245386 69.21305328 -0.09252376 81.64867377 -0.10142139 C87.50562833 -0.10580508 93.36258198 -0.11117169 99.21953583 -0.11641026 C118.69087028 -0.13342225 138.16220418 -0.14791621 157.63354492 -0.155159 C162.68619029 -0.15706887 167.73883566 -0.15898921 172.79148102 -0.16094494 C174.67518385 -0.16167055 174.67518385 -0.16167055 176.59694129 -0.16241082 C196.93802799 -0.17071031 217.27905587 -0.19604602 237.62011689 -0.22852562 C258.50635834 -0.26160368 279.3925699 -0.27960845 300.27883768 -0.28280324 C312.00466211 -0.28496766 323.73040076 -0.29370644 335.45619965 -0.31926441 C345.44290949 -0.34098159 355.42951272 -0.34901678 365.41624349 -0.33929763 C370.50949229 -0.3347559 375.60252117 -0.33663196 380.69573975 -0.35605907 C385.364346 -0.37371239 390.03257225 -0.37267538 394.70118266 -0.35716178 C396.38429973 -0.35478901 398.06744325 -0.359092 399.75051993 -0.37099043 C417.93801817 -0.49153493 432.0681552 4.07661364 445.50632477 16.64984608 C454.7756569 26.5579053 459.94579856 38.80486001 459.9647646 52.30367756 C459.96711683 53.01804572 459.96946906 53.73241388 459.97189257 54.46842957 C459.97856362 56.86855733 459.97812492 59.26863073 459.97771454 61.66876698 C459.98101435 63.40448384 459.98474016 65.14019993 459.98885602 66.87591505 C459.99887089 71.65098563 460.00259199 76.42604364 460.00524533 81.20112324 C460.00914991 86.34925845 460.01872816 91.49738372 460.02745819 96.64551258 C460.04721846 109.0811213 460.05728835 121.51673083 460.06618598 133.95235133 C460.07056968 139.80930589 460.07593629 145.66625954 460.08117485 151.52321339 C460.09818685 170.99454784 460.1126808 190.46588173 460.11992359 209.93722248 C460.12183347 214.98986785 460.1237538 220.04251322 460.12570953 225.09515858 C460.12619327 226.35096047 460.12667701 227.60676236 460.12717541 228.90061885 C460.13547491 249.24170555 460.16081061 269.58273343 460.19329021 289.92379445 C460.22636828 310.8100359 460.24437304 331.69624746 460.24756783 352.58251524 C460.24973225 364.30833967 460.25847103 376.03407832 460.28402901 387.7598772 C460.30574618 397.74658705 460.31378138 407.73319028 460.30406222 417.71992105 C460.29952049 422.81316985 460.30139655 427.90619873 460.32082367 432.9994173 C460.33847698 437.66802356 460.33743998 442.3362498 460.32192638 447.00486022 C460.3195536 448.68797728 460.3238566 450.37112081 460.33575503 452.05419749 C460.45629952 470.24169573 455.88815095 484.37183276 443.31491852 497.81000233 C433.40685929 507.07933446 421.15990459 512.24947611 407.66108704 512.26844215 C406.58953479 512.2719705 406.58953479 512.2719705 405.49633503 512.27557012 C403.09620726 512.28224118 400.69613387 512.28180247 398.29599762 512.2813921 C396.56028076 512.2846919 394.82456466 512.28841772 393.08884954 512.29253358 C388.31377896 512.30254845 383.53872095 512.30626955 378.76364136 512.30892289 C373.61550615 512.31282747 368.46738088 512.32240572 363.31925201 512.33113575 C350.88364329 512.35089602 338.44803376 512.36096591 326.01241326 512.36986354 C320.15545871 512.37424724 314.29850505 512.37961385 308.44155121 512.38485241 C288.97021675 512.40186441 269.49888286 512.41635836 250.02754211 512.42360115 C244.97489674 512.42551103 239.92225137 512.42743136 234.86960602 512.42938709 C233.61380413 512.42987083 232.35800224 512.43035457 231.06414574 512.43085297 C210.72305904 512.43915247 190.38203116 512.46448817 170.04097015 512.49696777 C149.1547287 512.53004584 128.26851714 512.5480506 107.38224936 512.55124539 C95.65642493 512.55340981 83.93068628 512.56214859 72.20488739 512.58770657 C62.21817755 512.60942374 52.23157432 512.61745894 42.24484354 512.60773978 C37.15159474 512.60319805 32.05856587 512.60507411 26.96534729 512.62450123 C22.29674103 512.64215454 17.62851479 512.64111754 12.95990437 512.62560394 C11.27678731 512.62323116 9.59364378 512.62753415 7.9105671 512.63943259 C-10.27693113 512.75997708 -24.40706817 508.19182851 -37.84523773 495.61859608 C-47.11456987 485.71053685 -52.28471152 473.46358214 -52.30367756 459.9647646 C-52.30602979 459.25039643 -52.30838202 458.53602827 -52.31080553 457.80001259 C-52.31747658 455.39988482 -52.31703788 452.99981143 -52.3166275 450.59967518 C-52.31992731 448.86395832 -52.32365313 447.12824222 -52.32776898 445.3925271 C-52.33778386 440.61745652 -52.34150496 435.84239851 -52.34415829 431.06731892 C-52.34806287 425.91918371 -52.35764112 420.77105844 -52.36637115 415.62292957 C-52.38613142 403.18732085 -52.39620132 390.75171132 -52.40509894 378.31609082 C-52.40948264 372.45913626 -52.41484925 366.60218261 -52.42008781 360.74522877 C-52.43709981 341.27389431 -52.45159377 321.80256042 -52.45883656 302.33121967 C-52.46074643 297.2785743 -52.46266677 292.22592893 -52.4646225 287.17328358 C-52.46510624 285.91748169 -52.46558998 284.6616798 -52.46608838 283.3678233 C-52.47438787 263.0267366 -52.49972358 242.68570872 -52.53220318 222.34464771 C-52.56528124 201.45840626 -52.583286 180.57219469 -52.5864808 159.68592691 C-52.58864522 147.96010249 -52.59738399 136.23436384 -52.62294197 124.50856495 C-52.64465915 114.52185511 -52.65269434 104.53525188 -52.64297519 94.5485211 C-52.63843346 89.4552723 -52.64030952 84.36224342 -52.65973663 79.26902485 C-52.67738994 74.60041859 -52.67635294 69.93219235 -52.66083934 65.26358193 C-52.65846657 63.58046487 -52.66276956 61.89732134 -52.67466799 60.21424466 C-52.79521249 42.02674642 -48.22706392 27.89660939 -35.65383148 14.45843983 C-25.74577226 5.18910769 -13.49881755 0.01896604 0 0 Z M30.83054352 78.13422108 C31.6267226 79.58272445 32.42477003 81.03020099 33.22360992 82.47723866 C33.66782288 83.28341129 34.11203583 84.08958393 34.56970978 84.92018604 C35.9610068 87.36331574 37.49789227 89.58894703 39.20554352 91.82172108 C43.33943098 97.3856679 47.24855811 103.08803792 51.14304352 108.82172108 C52.12168365 110.26188587 52.12168365 110.26188587 53.1200943 111.73114491 C54.41846309 113.64222887 55.71664352 115.55344081 57.01462555 117.46478748 C59.52462472 121.1545335 62.04991805 124.8336019 64.58054352 128.50922108 C65.02003326 129.14779041 65.45952301 129.78635975 65.91233063 130.44427967 C66.78433907 131.71097986 67.65648887 132.97758275 68.52878571 134.24408436 C75.36586677 144.17144399 82.18555459 154.1105454 88.98972321 164.06049061 C93.81088851 171.10912012 98.64684925 178.14749007 103.48777008 185.18256092 C105.76962871 188.49913872 108.05000107 191.81673818 110.33054352 195.13422108 C111.24720328 196.46755916 112.16386994 197.80089249 113.08054352 199.13422108 C140.58054352 239.13422108 140.58054352 239.13422108 141.95700836 241.13641834 C142.86870924 242.46248451 143.78049237 243.78849413 144.69235992 245.11444569 C147.06069963 248.5584946 149.42736912 252.00367467 151.79148102 255.45062733 C152.27939117 256.1615453 152.76730133 256.87246326 153.26999664 257.6049242 C154.19371185 258.95090922 155.11692937 260.29723601 156.03952789 261.6439867 C156.46298492 262.26080311 156.88644196 262.87761951 157.32273102 263.51312733 C157.73104156 264.11270252 158.13935211 264.71227772 158.56003571 265.33002186 C159.44055546 266.58041405 160.35552714 267.80697658 161.29636383 269.01263905 C164.88299272 273.66091997 164.88299272 273.66091997 164.60666656 276.15448475 C163.31112038 279.45916674 160.85198917 281.89334176 158.51804352 284.50922108 C157.41759872 285.76687227 156.31734351 287.02468937 155.21726227 288.28265858 C154.65313629 288.92300037 154.08901031 289.56334217 153.50778961 290.22308826 C150.92138842 293.17015501 148.37701442 296.15266839 145.83054352 299.13422108 C144.82945605 300.30237378 143.82815333 301.47034205 142.82663727 302.63812733 C140.83853076 304.95747709 138.85164914 307.27786782 136.86569977 309.59906483 C131.16326521 316.26190941 125.43668663 322.90293813 119.68845367 329.52631092 C114.04047244 336.03776375 108.4337304 342.58422506 102.83054352 349.13422108 C96.14152678 356.95352711 89.43305595 364.75487654 82.68845367 372.52631092 C77.04047244 379.03776375 71.4337304 385.58422506 65.83054352 392.13422108 C63.85191984 394.44718645 61.87283127 396.75975199 59.89304352 399.07172108 C59.15646515 399.93204945 59.15646515 399.93204945 58.40500641 400.80975819 C55.24056215 404.501524 52.05889546 408.17782677 48.86814117 411.84686756 C44.21256415 417.20180659 39.57710519 422.57170203 35.01804352 428.00922108 C33.80181305 429.45941639 33.80181305 429.45941639 32.56101227 430.93890858 C30.72736767 432.79922253 30.72736767 432.79922253 30.83054352 434.13422108 C34.79479542 434.38393168 38.75593477 434.56396271 42.72629547 434.68353748 C44.72947883 434.75779156 46.73047686 434.88495609 48.73093414 435.01312733 C56.15497913 435.25702091 56.15497913 435.25702091 62.62424469 432.05487537 C64.91535478 429.5225958 66.89559027 426.9450691 68.83054352 424.13422108 C69.65425446 423.14551014 70.47796539 422.1567992 71.32663727 421.13812733 C71.96730133 420.33246326 72.60796539 419.5267992 73.26804352 418.69672108 C77.12762955 413.92425905 81.20254342 409.40312999 85.35788727 404.88812733 C88.5776387 401.30214824 91.58959528 397.56720616 94.61569977 393.81781483 C97.49535238 390.32871192 100.53748227 387.00425187 103.58444977 383.66156483 C105.8924195 381.06459715 108.08610214 378.40018095 110.26804352 375.69672108 C114.12762955 370.92425905 118.20254342 366.40312999 122.35788727 361.88812733 C125.5776387 358.30214824 128.58959528 354.56720616 131.61569977 350.81781483 C134.49535238 347.32871192 137.53748227 344.00425187 140.58444977 340.66156483 C142.8924195 338.06459715 145.08610214 335.40018095 147.26804352 332.69672108 C150.3439094 328.89334605 153.51807518 325.23339456 156.83054352 321.63422108 C160.9520475 317.15543502 164.82483989 312.52943324 168.64694977 307.79437733 C171.92394465 303.80218857 175.36289955 299.96091265 178.83054352 296.13422108 C182.31066951 299.33688828 184.84131413 302.93798362 187.39304352 306.88422108 C188.2826366 308.23906587 189.17329722 309.59321019 190.06491852 310.94672108 C190.52189117 311.64152576 190.97886383 312.33633045 191.44968414 313.05218983 C193.64137636 316.3567781 195.88989417 319.62134977 198.14304352 322.88422108 C199.06627095 324.22272802 199.98944692 325.56127046 200.91257477 326.89984608 C201.38517731 327.5849828 201.85777985 328.27011951 202.34470367 328.97601795 C205.01579915 332.85582143 207.67241475 336.74552792 210.33054352 340.63422108 C215.70390285 348.49221544 221.09143399 356.34033254 226.48777008 364.18256092 C228.76962871 367.49913872 231.05000107 370.81673818 233.33054352 374.13422108 C234.24720328 375.46755916 235.16386994 376.80089249 236.08054352 378.13422108 C252.58054352 402.13422108 252.58054352 402.13422108 253.95749664 404.13715076 C254.86754222 405.46079457 255.77769717 406.78436319 256.68796539 408.10785389 C259.08187072 411.58880518 261.47345577 415.07132195 263.86179352 418.55609608 C264.35872711 419.2805492 264.85566071 420.00500233 265.36765289 420.75140858 C266.31757562 422.13634265 267.26683322 423.52173325 268.21530914 424.90765858 C268.64521149 425.53414295 269.07511383 426.16062733 269.51804352 426.80609608 C269.89316071 427.35362537 270.26827789 427.90115467 270.65476227 428.46527576 C271.04277008 429.01602772 271.43077789 429.56677967 271.83054352 430.13422108 C272.30920616 431.16180531 272.30920616 431.16180531 272.79753876 432.21014881 C276.1688798 435.4008466 280.07106214 434.65639099 284.53440094 434.58832264 C285.52970322 434.58890675 286.52500549 434.58949085 287.55046844 434.59009266 C290.84600237 434.58730206 294.14063602 434.55616323 297.43601227 434.52484608 C299.71858476 434.51738718 302.00116364 434.51169259 304.28374481 434.5076952 C310.29596336 434.49241135 316.30779633 434.45310542 322.31986237 434.40887928 C328.45292697 434.36798611 334.58605379 434.34969689 340.71921539 434.32953358 C352.75649432 434.28661417 364.79348688 434.21832928 376.83054352 434.13422108 C374.98891272 430.33486225 372.74832203 426.88057184 370.39304352 423.38422108 C369.7326004 422.39893421 369.7326004 422.39893421 369.058815 421.39374256 C364.49677595 414.60498439 359.85994654 407.86785153 355.21286774 401.13715076 C352.95662738 397.86795332 350.70595347 394.5949336 348.45554352 391.32172108 C348.00703033 390.66953602 347.55851715 390.01735096 347.09641266 389.34540272 C342.94499305 383.30624138 338.80807557 377.25719246 334.67136383 371.20795155 C329.85019853 364.15932204 325.01423778 357.12095208 320.17331696 350.08588123 C317.89145833 346.76930344 315.61108597 343.45170398 313.33054352 340.13422108 C312.41388376 338.800883 311.49721709 337.46754966 310.58054352 336.13422108 C294.08054352 312.13422108 277.58054352 288.13422108 261.08054352 264.13422108 C260.62622955 263.47341541 260.17191559 262.81260975 259.70383453 262.13177967 C258.79280915 260.8066224 257.88183855 259.48142746 256.97092438 258.15619373 C254.59340803 254.69744614 252.21476944 251.23947763 249.83444977 247.78265858 C249.34202789 247.06722889 248.84960602 246.3517992 248.34226227 245.61468983 C247.40642002 244.25506995 246.47024583 242.89567846 245.53366852 241.53656483 C244.69127865 240.31242729 243.85269917 239.0856561 243.0185318 237.85590076 C241.86616292 236.18584213 240.6595269 234.55363707 239.45163727 232.92328358 C237.83054352 230.13422108 237.83054352 230.13422108 237.83054352 228.04437733 C239.16640332 225.49267637 240.84697381 223.66204541 242.83054352 221.57172108 C246.13017631 218.01626232 249.28716612 214.41165253 252.33054352 210.63422108 C255.94203486 206.17001651 259.71715046 201.90419994 263.58444977 197.66156483 C265.8924195 195.06459715 268.08610214 192.40018095 270.26804352 189.69672108 C274.12762955 184.92425905 278.20254342 180.40312999 282.35788727 175.88812733 C285.5776387 172.30214824 288.58959528 168.56720616 291.61569977 164.81781483 C294.49535238 161.32871192 297.53748227 158.00425187 300.58444977 154.66156483 C302.8924195 152.06459715 305.08610214 149.40018095 307.26804352 146.69672108 C311.12762955 141.92425905 315.20254342 137.40312999 319.35788727 132.88812733 C322.5776387 129.30214824 325.58959528 125.56720616 328.61569977 121.81781483 C331.49535238 118.32871192 334.53748227 115.00425187 337.58444977 111.66156483 C339.8924195 109.06459715 342.08610214 106.40018095 344.26804352 103.69672108 C348.1865288 98.85341846 352.31222753 94.24438546 356.52194977 89.65375233 C362.06765857 84.49374533 362.06765857 84.49374533 364.83054352 78.13422108 C360.86650236 77.85955401 356.90622148 77.6615407 352.93479156 77.52997303 C350.93126515 77.44827956 348.93038256 77.30839652 346.93015289 77.1674242 C339.41801582 76.90373529 339.41801582 76.90373529 333.05661774 80.4384203 C330.77788231 83.23971044 328.78740678 86.10200543 326.83054352 89.13422108 C325.94353621 90.19109021 325.03309519 91.22977288 324.08054352 92.22797108 C319.17657517 97.47249279 314.55398506 102.86440335 310.04538727 108.45062733 C307.16573465 111.93973023 304.12360476 115.26419028 301.07663727 118.60687733 C298.76866754 121.203845 296.57498489 123.8682612 294.39304352 126.57172108 C290.53345749 131.34418311 286.45854361 135.86531216 282.30319977 140.38031483 C279.08344833 143.96629391 276.07149176 147.701236 273.04538727 151.45062733 C270.16573465 154.93973023 267.12360476 158.26419028 264.07663727 161.60687733 C261.76866754 164.203845 259.57498489 166.8682612 257.39304352 169.57172108 C253.53345749 174.34418311 249.45854361 178.86531216 245.30319977 183.38031483 C242.09433675 186.95416701 239.09077767 190.67418006 236.08054352 194.41547108 C233.01711148 198.11711812 229.76567294 201.63087768 226.48288727 205.13812733 C224.6179901 206.95911693 224.6179901 206.95911693 224.83054352 209.13422108 C220.34012954 205.00005765 217.08521675 200.3851286 213.70554352 195.32172108 C212.5495085 193.61063831 211.39325508 191.89970308 210.23679352 190.18890858 C209.66316071 189.336516 209.08952789 188.48412342 208.49851227 187.60590076 C206.0902027 184.03714694 203.6494545 180.49114547 201.20554352 176.94672108 C200.30698946 175.64081168 199.40855156 174.33482236 198.51023102 173.02875233 C198.06904938 172.38760487 197.62786774 171.74645741 197.17331696 171.08588123 C194.89145833 167.76930344 192.61108597 164.45170398 190.33054352 161.13422108 C189.41388376 159.800883 188.49721709 158.46754966 187.58054352 157.13422108 C160.08054352 117.13422108 160.08054352 117.13422108 158.7048111 115.13300037 C157.79077935 113.80360298 156.87655498 112.474338 155.96213531 111.14520741 C153.62853365 107.75273035 151.29862507 104.35781056 148.97507477 100.95843983 C148.50069977 100.26556873 148.02632477 99.57269764 147.53757477 98.85883045 C146.65216852 97.5654429 145.76791692 96.27126356 144.88523102 94.97601795 C144.05350085 93.76210648 143.19944601 92.56317582 142.32329559 91.38092518 C140.83054352 89.13422108 140.83054352 89.13422108 139.61891937 86.37396717 C137.72279731 82.72740728 136.1124673 80.65060185 132.83054352 78.13422108 C125.44257672 76.04550926 117.32471249 76.85931374 109.73679352 77.06000233 C107.46140052 77.08053364 105.1859587 77.09618467 102.91049957 77.10716724 C96.93825386 77.14905148 90.96897855 77.25699729 84.99790192 77.37891102 C78.89825372 77.49169451 72.79812266 77.54173127 66.69773102 77.5971117 C54.74070086 77.71487809 42.78586973 77.90246982 30.83054352 78.13422108 Z " fill="#000000" transform="translate(52.169456481933594,-0.13422107696533203)"/>
<path d="M0 0 C6.66993862 -0.30572357 13.33805903 -0.51497211 20.01342773 -0.65917969 C22.28071581 -0.71931738 24.54754245 -0.80105858 26.81323242 -0.90527344 C46.6503224 -1.79447721 46.6503224 -1.79447721 51.27758789 2.34448242 C53.62058996 5.44804014 55.30406546 8.5062668 57 12 C58.24007098 13.82043767 59.51162677 15.61989894 60.81640625 17.39453125 C62.0673463 19.19896852 63.31598404 21.00500371 64.5625 22.8125 C65.95698047 24.82555601 67.35151324 26.8385758 68.74609375 28.8515625 C69.44976074 29.86895508 70.15342773 30.88634766 70.87841797 31.93457031 C74.28582515 36.85786197 77.70529791 41.77274391 81.125 46.6875 C81.78814209 47.64092285 82.45128418 48.5943457 83.13452148 49.57666016 C89.16640381 58.24605757 95.2211722 66.89932244 101.28222656 75.54833984 C104.1896209 79.69786428 107.09468001 83.84902306 110 88 C111.16665575 89.66667431 112.33332241 91.33334098 113.5 93 C115.83333333 96.33333333 118.16666667 99.66666667 120.5 103 C121.07733887 103.8247583 121.65467773 104.6495166 122.24951172 105.49926758 C123.41784967 107.16834507 124.58614384 108.83745322 125.75439453 110.5065918 C128.64513489 114.63662338 131.53659854 118.76614446 134.4296875 122.89453125 C141.31728062 132.72500507 148.18294378 142.57042296 155.03417969 152.42626953 C161.09800618 161.14686679 167.18658311 169.84996444 173.28222656 178.54833984 C176.1896209 182.69786428 179.09468001 186.84902306 182 191 C183.16665575 192.66667431 184.33332241 194.33334098 185.5 196 C192.5 206 199.5 216 206.5 226 C207.07733887 226.8247583 207.65467773 227.6495166 208.24951172 228.49926758 C209.41784967 230.16834507 210.58614384 231.83745322 211.75439453 233.5065918 C214.64513489 237.63662338 217.53659854 241.76614446 220.4296875 245.89453125 C226.63561082 254.75207635 232.82681433 263.61960206 239 272.5 C244.21883316 280.00725134 249.44543984 287.50894498 254.6875 295 C255.25146484 295.80630859 255.81542969 296.61261719 256.39648438 297.44335938 C256.92951172 298.20455078 257.46253906 298.96574219 258.01171875 299.75 C258.51364746 300.46800781 259.01557617 301.18601562 259.53271484 301.92578125 C260.50994361 303.30723476 261.49991276 304.67976437 262.50244141 306.04296875 C266 310.80288714 266 310.80288714 266 313 C259.29290612 313.22882192 252.58682282 313.38605617 245.87670898 313.49438477 C243.59605298 313.53955429 241.31565632 313.60090662 239.03588867 313.67895508 C235.75113979 313.78856611 232.46984203 313.83925812 229.18359375 313.87890625 C228.16978134 313.92535782 227.15596893 313.97180939 226.11143494 314.01966858 C221.87732377 314.02266531 219.12670862 314.0003378 215.87782288 311.11584473 C214.07283761 308.82173797 212.5144343 306.49347797 211 304 C210.00528687 302.62980713 210.00528687 302.62980713 208.99047852 301.23193359 C208.45865967 300.46187988 207.92684082 299.69182617 207.37890625 298.8984375 C206.76192871 298.00809814 206.14495117 297.11775879 205.50927734 296.20043945 C204.86684082 295.26804443 204.2244043 294.33564941 203.5625 293.375 C202.14979767 291.3345952 200.73703554 289.2942318 199.32421875 287.25390625 C198.6079834 286.21766113 197.89174805 285.18141602 197.15380859 284.11376953 C193.73669866 279.17364029 190.30598472 274.24299858 186.875 269.3125 C186.21201904 268.35931885 185.54903809 267.4061377 184.8659668 266.42407227 C178.83396044 257.75440379 172.77899612 249.10091773 166.71777344 240.45166016 C163.8103791 236.30213572 160.90531999 232.15097694 158 228 C156.83334425 226.33332569 155.66667759 224.66665902 154.5 223 C152.16666667 219.66666667 149.83333333 216.33333333 147.5 213 C146.92266113 212.1752417 146.34532227 211.3504834 145.75048828 210.50073242 C144.58215033 208.83165493 143.41385616 207.16254678 142.24560547 205.4934082 C139.35486511 201.36337662 136.46340146 197.23385554 133.5703125 193.10546875 C126.68271938 183.27499493 119.81705622 173.42957704 112.96582031 163.57373047 C106.90199382 154.85313321 100.81341689 146.15003556 94.71777344 137.45166016 C91.8103791 133.30213572 88.90531999 129.15097694 86 125 C84.83334425 123.33332569 83.66667759 121.66665902 82.5 120 C75.5 110 68.5 100 61.5 90 C60.92266113 89.1752417 60.34532227 88.3504834 59.75048828 87.50073242 C58.58215033 85.83165493 57.41385616 84.16254678 56.24560547 82.4934082 C53.35486511 78.36337662 50.46340146 74.23385554 47.5703125 70.10546875 C40.68784976 60.28231738 33.82709014 50.44437832 26.98120117 40.59570312 C21.39842042 32.5665963 15.79531683 24.55186608 10.18359375 16.54296875 C9.6716748 15.80997559 9.15975586 15.07698242 8.63232422 14.32177734 C7.44524178 12.63330083 6.247509 10.95229666 5.04345703 9.27587891 C4.08028564 7.92695557 4.08028564 7.92695557 3.09765625 6.55078125 C2.21025757 5.31775269 2.21025757 5.31775269 1.30493164 4.05981445 C0 2 0 2 0 0 Z " fill="#000000" transform="translate(123,100)"/>
</svg>
